<svg xmlns="http://www.w3.org/2000/svg" viewBox="0 0 31.21 42.52"><defs><style>.cls-1{fill:#ff0;}</style></defs><title>completed</title><g id="Layer_2" data-name="Layer 2"><g id="Award"><path class="cls-1" d="M15.83,25.11l-2.92-1.66-3.37,0-1.7-2.91L4.92,18.9l0-3.37-1.7-2.9L4.87,9.7l0-3.36,2.9-1.7L9.42,1.72l3.36,0L15.69,0l2.92,1.67,3.36,0,1.7,2.9L26.6,6.22l0,3.36,1.69,2.91-1.66,2.92,0,3.36-2.91,1.7L22.1,23.4H18.73Zm-2.4-3.67,2.39,1.36,2.37-1.38,2.74,0L22.29,19l2.37-1.39V14.88L26,12.5l-1.39-2.37,0-2.75L22.22,6,20.83,3.65l-2.74,0L15.7,2.31,13.33,3.7H10.58L9.23,6.1,6.86,7.48v2.75L5.51,12.61,6.9,15v2.75L9.3,19.09l1.39,2.37Z"/><path class="cls-1" d="M15.76,20.56a8,8,0,0,1-7.35-4.85,8,8,0,1,1,10.5,4.2A8,8,0,0,1,15.76,20.56Zm0-14A6,6,0,0,0,13.4,7a6,6,0,0,0-3.16,7.88,6,6,0,0,0,7.88,3.15,6,6,0,0,0,3.21-3.29h0a6,6,0,0,0-5.57-8.23Z"/><path class="cls-1" d="M9.48,42.52,4.92,38.87,0,39.65,5.27,23.28l9.44,3Zm-4-5.76,3,2.39L12.19,27.6,6.57,25.79,2.9,37.17Z"/><path class="cls-1" d="M21.72,42.52,16.5,26.31l9.43-3,5.28,16.37-4.92-.78ZM19,27.6l3.72,11.55,3-2.39,2.58.41L24.64,25.79Z"/></g></g></svg>