<svg xmlns="http://www.w3.org/2000/svg" viewBox="0 0 34 36"><defs><style>.cls-1{fill:#fff;}</style></defs><title>delete</title><g id="Layer_2" data-name="Layer 2"><g id="Trash"><path class="cls-1" d="M9,8A1,1,0,0,0,8,9V31a1,1,0,0,0,2,0V9A1,1,0,0,0,9,8Z"/><path class="cls-1" d="M17,8a1,1,0,0,0-1,1V31a1,1,0,0,0,2,0V9A1,1,0,0,0,17,8Z"/><path class="cls-1" d="M25,32a1,1,0,0,0,1-1V9a1,1,0,0,0-2,0V31A1,1,0,0,0,25,32Z"/><path class="cls-1" d="M33,4H22V1a1,1,0,0,0-1-1H13a1,1,0,0,0-1,1V4H1A1,1,0,0,0,1,6H3V35a1,1,0,0,0,1,1H30a1,1,0,0,0,1-1V6h2a1,1,0,0,0,0-2ZM14,2h6V4H14ZM29,34H5V6H29Z"/></g></g></svg>