<svg xmlns="http://www.w3.org/2000/svg" viewBox="0 0 45.02 44.55"><defs><style>.cls-1{fill:#fff;}</style></defs><title>edit</title><g id="Layer_2" data-name="Layer 2"><g id="Pencil"><path class="cls-1" d="M44.74,8.84,36.16.27a1,1,0,0,0-1.35,0L3,32.09a.89.89,0,0,0-.25.44L0,43.36a1,1,0,0,0,.23.9,1,1,0,0,0,.7.29h.19l11.28-2.26a1.06,1.06,0,0,0,.49-.26L44.74,10.2A1,1,0,0,0,44.74,8.84Zm-15-.56,7.11,7.11L35.26,17,28.15,9.86A.67.67,0,0,0,28,9.77l1.63-1.62A1,1,0,0,0,29.73,8.28ZM3.37,37.89l3.54,3.54-4.66.93Zm8.4,2.57L9,41a1,1,0,0,0-.24-.47L4.23,36a1,1,0,0,0-.34-.22l.64-2.56L26.71,11.08a1,1,0,0,0,.09.13l7.11,7.11ZM38.19,14,31.08,6.93A1,1,0,0,0,31,6.84L35.48,2.3l7.23,7.22Z"/></g></g></svg>